<svg width="132" height="54" viewBox="0 0 132 54" xmlns="http://www.w3.org/2000/svg" xmlns:xlink="http://www.w3.org/1999/xlink"><title>Group</title><defs><path id="a" d="M0.0242181827 38.014474L0.0242181827 0.15822546 27.3665464 0.15822546 54.7088746 0.15822546 54.7088746 38.014474 0.0242181827 38.014474z"/><path id="c" d="M28.4466773 42.7612378L0.136429096 42.7612378 0.136429096 0.201414552 28.4466773 0.201414552z"/></defs><g fill="none" fill-rule="evenodd"><g><g><mask id="b" fill="#fff"><use xlink:href="#a"/></mask><path d="M50.825.158a3.883 3.883 0 1 0 0 7.766 3.883 3.883 0 0 0 0-7.766m-36.6 31.678c-4.256 0-7.227-3.161-7.227-7.687 0-4.454 3.04-7.687 7.226-7.687 4.217 0 7.277 3.233 7.277 7.687 0 4.526-2.992 7.687-7.277 7.687zm-.052-21.553C5.96 10.283 0 16.114 0 24.149c0 8.034 5.487 13.865 13.046 13.865 3.19 0 6.221-1.037 8.455-2.84v2.38h6.845V24.149c0-8.035-5.96-13.866-14.173-13.866z" fill="#000" mask="url(#b)"/></g><path fill="#000" d="M47.4034598 37.5539249L54.2479219 37.5539249 54.2479219 10.7435895 47.4034598 10.7435895z"/><g transform="translate(57.72 10.495)"><mask id="d" fill="#fff"><use xlink:href="#c"/></mask><path d="M14.291.201C6.337.201.496 5.671.136 13.316h7.012c.322-4.061 3.247-6.935 7.194-6.935 3.976 0 6.922 2.874 7.247 6.935h6.858C28.087 5.67 22.245.2 14.29.2m6.944 16.5a7.877 7.877 0 0 1-.412 1.093l-.058.118c-1.18 2.37-3.5 3.842-6.423 3.842-3.367 0-5.93-1.982-6.852-5.053H.3c1.045 6.67 6.124 11.28 12.845 11.28 3.19 0 6.22-1.038 8.455-2.84v3.018s-.04 1.868-.238 2.833c-.793 3.35-3.51 5.614-7.04 5.614-3.518 0-6.226-2.284-7-5.658H.23c.916 6.968 6.536 11.837 14.04 11.837 7.376 0 12.93-4.708 13.985-11.489h.003s.01-.055.024-.177c.008-.057.019-.113.026-.17h-.008c.054-.524.137-1.691.142-3.842v.413V16.7h-7.208" fill="#000" mask="url(#d)"/></g><path d="M130.333 31.16c-1.692.105-2.941-.209-3.714-.935-.755-.71-1.138-1.897-1.138-3.53V15.181h4.619V8.918h-4.62V2.802h-6.833v23.892c0 3.69 1.174 6.686 3.394 8.662 1.79 1.594 4.13 2.415 6.838 2.415.544 0 1.103-.033 1.675-.1l1.095-.128v-6.465l-1.316.082m-90.975-.755c-.558-.533-.841-1.447-.841-2.72V.457h-6.954V27.82c0 3.368 1.081 6.111 3.127 7.934 1.65 1.47 3.846 2.247 6.35 2.247.498 0 1.013-.03 1.53-.09l1.39-.162v-6.676l-1.644.077c-1.378.066-2.371-.186-2.958-.746m64.388-20.547c-2.455 0-4.728.779-6.588 2.1V.712h-7.021v36.843h7.051V21.56c0-3.017 1.895-5.463 5.463-5.463a5.463 5.463 0 0 1 5.463 5.463l.007 15.994h7.021v-16.3c0-.461-.03-.914-.083-1.36-.673-5.652-5.479-10.036-11.313-10.036" fill="#000"/></g></g></svg>